<svg width="22" height="19" viewBox="0 0 22 19" fill="none" xmlns="http://www.w3.org/2000/svg">
<path fill-rule="evenodd" clip-rule="evenodd" d="M0.78125 0.242188L9.375 0.242188L9.92188 0.476563L10.9375 1.47656L11.9531 0.476563L12.5 0.242188L21.0938 0.242188L21.875 1.02344L21.875 16.6484L21.0938 17.4297H12.8281L11.4844 18.7578H10.3906L9.04688 17.4297L0.78125 17.4297L0 16.6484L0 1.02344L0.78125 0.242188ZM11.7188 16.3672L12 16.1016L12.5 15.8672L20.3125 15.8672L20.3125 1.80469L12.8281 1.80469L11.6719 2.96094L11.7188 16.3672ZM1.5625 15.8672H9.375L9.92188 16.1016L10.1406 16.3047L10.1406 2.89844L9.04688 1.80469L1.5625 1.80469L1.5625 15.8672ZM14.0625 4.92969L18.75 4.92969V6.49219L14.0625 6.49219V4.92969ZM14.0625 11.1797L18.75 11.1797V12.7422L14.0625 12.7422V11.1797ZM18.75 8.05469H14.0625V9.61719L18.75 9.61719V8.05469ZM3.125 4.92969L7.8125 4.92969V6.49219L3.125 6.49219V4.92969ZM7.8125 8.05469L3.125 8.05469V9.61719H7.8125V8.05469ZM7.8125 11.1797H3.125V12.7422H7.8125V11.1797Z" fill="#6E41E2"/>
</svg>
