<svg width="25" height="19" viewBox="0 0 25 19" fill="none" xmlns="http://www.w3.org/2000/svg">
<path d="M7.14286 12.1787C7.14286 12.6523 7.331 13.1065 7.66588 13.4414C8.00077 13.7763 8.45497 13.9644 8.92857 13.9644C9.40217 13.9644 9.85638 13.7763 10.1913 13.4414C10.5261 13.1065 10.7143 12.6523 10.7143 12.1787C10.7143 11.7051 10.5261 11.2509 10.1913 10.916C9.85638 10.5811 9.40217 10.393 8.92857 10.393C8.45497 10.393 8.00077 10.5811 7.66588 10.916C7.331 11.2509 7.14286 11.7051 7.14286 12.1787ZM7.14286 8.60725C6.66926 8.60725 6.21505 8.41911 5.88017 8.08422C5.54528 7.74934 5.35714 7.29513 5.35714 6.82153C5.35714 6.34793 5.54528 5.89373 5.88017 5.55884C6.21505 5.22396 6.66926 5.03582 7.14286 5.03582C7.61646 5.03582 8.07066 5.22396 8.40555 5.55884C8.74043 5.89373 8.92857 6.34793 8.92857 6.82153C8.92857 7.29513 8.74043 7.74934 8.40555 8.08422C8.07066 8.41911 7.61646 8.60725 7.14286 8.60725ZM17.8571 5.92868C17.6203 5.92868 17.3932 6.02275 17.2258 6.19019C17.0584 6.35763 16.9643 6.58473 16.9643 6.82153V8.60725H15.1786C14.9418 8.60725 14.7147 8.70132 14.5472 8.86876C14.3798 9.0362 14.2857 9.2633 14.2857 9.5001C14.2857 9.73691 14.3798 9.96401 14.5472 10.1315C14.7147 10.2989 14.9418 10.393 15.1786 10.393H16.9643V12.1787C16.9643 12.4155 17.0584 12.6426 17.2258 12.81C17.3932 12.9775 17.6203 13.0715 17.8571 13.0715C18.0939 13.0715 18.321 12.9775 18.4885 12.81C18.6559 12.6426 18.75 12.4155 18.75 12.1787V10.393H20.5357C20.7725 10.393 20.9996 10.2989 21.1671 10.1315C21.3345 9.96401 21.4286 9.73691 21.4286 9.5001C21.4286 9.2633 21.3345 9.0362 21.1671 8.86876C20.9996 8.70132 20.7725 8.60725 20.5357 8.60725H18.75V6.82153C18.75 6.58473 18.6559 6.35763 18.4885 6.19019C18.321 6.02275 18.0939 5.92868 17.8571 5.92868ZM25 9.5001C25 4.56886 21.0027 0.571533 16.0714 0.571533L8.92857 0.571533C3.99732 0.571533 0 4.56886 0 9.5001C0 14.4314 3.99732 18.4287 8.92857 18.4287L16.0714 18.4287C21.0027 18.4287 25 14.4314 25 9.5001ZM16.0714 2.35725C17.9658 2.35725 19.7826 3.1098 21.1222 4.44934C22.4617 5.78889 23.2143 7.6057 23.2143 9.5001C23.2143 11.3945 22.4617 13.2113 21.1222 14.5509C19.7826 15.8904 17.9658 16.643 16.0714 16.643L8.92857 16.643C7.03417 16.643 5.21735 15.8904 3.87781 14.5509C2.53826 13.2113 1.78572 11.3945 1.78572 9.5001C1.78572 7.6057 2.53826 5.78889 3.87781 4.44934C5.21735 3.1098 7.03417 2.35725 8.92857 2.35725L16.0714 2.35725Z" fill="#8A8A8A"/>
</svg>
