<svg width="25" height="27" viewBox="0 0 25 27" fill="none" xmlns="http://www.w3.org/2000/svg">
<path d="M8.22997 20.6784V24.3405L8.19726 24.3514L8.19464 24.7098C8.1902 25.3185 7.69084 25.8158 7.0688 25.8158H4.5476C2.30873 25.8158 0.5 24.015 0.5 21.8012V10.3573C0.521174 9.52934 0.915962 8.7534 1.5773 8.24451L1.57736 8.24458L1.58484 8.2386L10.1617 1.37321L10.1686 1.36768L10.1753 1.3619C11.4741 0.244474 13.3936 0.209816 14.7326 1.2799L14.7341 1.2811L23.5066 8.23637C24.1369 8.76177 24.5 9.53606 24.5 10.3511V21.8129C24.5 22.8752 24.0743 23.8945 23.3155 24.6458C22.5567 25.3972 21.527 25.8185 20.4537 25.8158H20.4524H17.8723C17.5742 25.8158 17.2892 25.6977 17.0804 25.4888C16.8716 25.28 16.7561 24.998 16.7582 24.7054V24.7018V20.6784C16.7582 20.0515 16.5073 19.4509 16.0619 19.0087C15.6165 18.5665 15.0133 18.3188 14.385 18.3188H10.6032C9.29595 18.3188 8.22997 19.3718 8.22997 20.6784Z" stroke="#8A8A8A"/>
</svg>
